<?xml version="1.0" standalone="no"?>
<!DOCTYPE svg PUBLIC "-//W3C//DTD SVG 1.0//EN" "http://www.w3.org/TR/2001/REC-SVG-20010904/DTD/svg10.dtd">
<svg xmlns="http://www.w3.org/2000/svg" xmlns:xlink="http://www.w3.org/1999/xlink" id="body_1" width="667" height="667">

<defs>
    <clipPath  id="1">

    <path id=""  clip-rule="evenodd" transform="matrix(1 0 0 1 0 0)"  d="M500 500L0 500L0 500L0 0L0 0L500 0L500 0L500 500z" />    </clipPath>
</defs>

<g transform="matrix(1.3333 0 0 1.3333 0 0)">
	<g clip-path="url(#1)" >
    <path id=""  transform="matrix(1 0 0 -1 0 500)"  d="M264.72952 327.22952L264.72952 327.22952L264.72952 327.22952L368.8955 223.0625L368.8955 223.0625L368.8955 223.0625C 372.958 219.00002 375 213.667 375 208.33301L375 208.33301L375 208.33301C 375 203 372.95804 197.66602 368.8955 193.6035L368.8955 193.6035L368.8955 193.6035C 360.75 185.458 347.58298 185.458 339.4375 193.6035L339.4375 193.6035L250 283.042L250 283.042L160.5625 193.60449L160.5625 193.60449L160.5625 193.60449C 152.41699 185.45898 139.25 185.45898 131.10449 193.60449L131.10449 193.60449L131.10449 193.60449C 122.958984 201.75 122.958984 214.91699 131.10449 223.0625L131.10449 223.0625L235.2715 327.22952C 243.41699 335.375 256.583 335.375 264.72952 327.22952zM-4.5924256E-14 250C -2.0600797E-14 112.14551 112.14551 -7.124772E-14 250 -4.592426E-14L250 -4.592426E-14L250 -4.592426E-14C 387.85452 -2.0600804E-14 500 112.14551 500 250L500 250L500 250C 500 387.85452 387.85452 500 250 500L250 500L250 500C 112.14551 500 -7.124772E-14 387.85452 -4.5924256E-14 250z" stroke="#FFFFFF" stroke-width="1.3020834" fill="#EC644B" fill-rule="nonzero" />
	</g>
</g>
</svg>